<svg xmlns="http://www.w3.org/2000/svg" viewBox="0 0 99.16 84"><defs><style>.cls-1{fill:#4ba646;}.cls-2{fill:#c1daa0;}.cls-3{fill:#a3d2b1;}.cls-4{fill:#78ae80;}.cls-5{fill:#cadb8c;}.cls-6{fill:#468a41;}.cls-7{fill:#cad74e;}.cls-8{fill:#3b6733;}.cls-9{fill:#a5c852;}.cls-10{fill:#76ba56;}.cls-11{fill:#4faf3e;}.cls-12{fill:#c7dc92;}.cls-13{fill:#a1d0a7;}.cls-14{fill:#71bc7c;}.cls-15{fill:#d2de7f;}.cls-16{fill:#3e9e38;}.cls-17{fill:#d6db42;}.cls-18{fill:#3a7b31;}.cls-19{fill:#adcb48;}.cls-20{fill:#7bbb4c;}.cls-21{fill:#383837;}</style></defs><title>GET_Logo</title><g id="Layer_2" data-name="Layer 2"><g id="ARTWORK"><line class="cls-1" x1="49.37" y1="28.85" x2="49.69" y2="28.84"/><polygon class="cls-2" points="53.03 3.85 56.62 11.54 66.47 0 61.06 0.93 53.03 3.85"/><polygon class="cls-3" points="56.62 11.54 66.47 0 64.54 11.16 56.62 11.54"/><polygon class="cls-4" points="56.62 11.54 54.09 16.41 61.99 16.82 64.54 11.16 56.62 11.54"/><polygon class="cls-5" points="54.09 16.41 47.55 9.96 53.03 3.85 56.62 11.54 54.09 16.41"/><polygon class="cls-6" points="54.09 16.41 61.99 16.82 60.43 20.28 51.88 20.63 54.09 16.41"/><polygon class="cls-7" points="54.09 16.41 47.55 9.96 49.24 15.55 48.7 21.11 51.88 20.63 54.09 16.41"/><polygon class="cls-8" points="51.88 20.63 50.86 25.01 56.18 24.4 60.43 20.28 51.88 20.63"/><polygon class="cls-9" points="50.86 25.02 48.75 24.43 48.56 22.94 48.7 21.11 51.88 20.63 50.86 25.02"/><polygon class="cls-8" points="50.86 25.02 49.56 30.81 56.18 24.4 50.86 25.02"/><polygon class="cls-10" points="50.86 25.02 48.75 24.43 49.55 30.88 50.86 25.02"/><polygon class="cls-3" points="30.44 0.88 41.55 4.18 39.19 9.21 30.44 0.88"/><polygon class="cls-4" points="39.19 9.21 41.55 4.18 47.62 9.97 42.26 14 39.19 9.21"/><polygon class="cls-6" points="42.26 14 47.62 9.97 49.3 15.56 44.52 17.55 42.26 14"/><polygon class="cls-8" points="44.52 17.55 49.3 15.56 48.61 22.95 48.1 23.16 44.52 17.55"/><polygon class="cls-8" points="48.1 23.16 48.61 22.95 49.57 30.73 48.1 23.16"/><polygon class="cls-2" points="30.44 0.88 32.16 5.81 35.85 14.63 39.19 9.21 30.44 0.88"/><polygon class="cls-5" points="39.19 9.21 35.85 14.63 39.2 17.16 42.26 14 39.19 9.21"/><polygon class="cls-7" points="42.26 14 39.2 17.16 41.91 19.36 44.52 17.55 42.26 14"/><polygon class="cls-9" points="44.52 17.55 41.91 19.36 47.38 23.93 48.1 23.16 44.52 17.55"/><polygon class="cls-10" points="48.1 23.16 47.38 23.93 49.59 30.89 48.1 23.16"/><line class="cls-11" x1="49.37" y1="28.85" x2="49.69" y2="28.84"/><polygon class="cls-12" points="53.03 3.85 56.62 11.54 66.47 0 61.06 0.93 53.03 3.85"/><polygon class="cls-13" points="56.62 11.54 66.47 0 64.54 11.16 56.62 11.54"/><polygon class="cls-14" points="56.62 11.54 54.09 16.41 61.99 16.82 64.54 11.16 56.62 11.54"/><polygon class="cls-15" points="54.09 16.41 47.55 9.96 53.03 3.85 56.62 11.54 54.09 16.41"/><polygon class="cls-16" points="54.09 16.41 61.99 16.82 60.43 20.28 51.88 20.63 54.09 16.41"/><polygon class="cls-17" points="54.09 16.41 47.55 9.96 49.24 15.55 48.7 21.11 51.88 20.63 54.09 16.41"/><polygon class="cls-18" points="51.88 20.63 50.86 25.01 56.18 24.4 60.43 20.28 51.88 20.63"/><polygon class="cls-19" points="50.86 25.02 48.75 24.43 48.56 22.94 48.7 21.11 51.88 20.63 50.86 25.02"/><polygon class="cls-18" points="50.86 25.02 49.56 30.81 56.18 24.4 50.86 25.02"/><polygon class="cls-20" points="50.86 25.02 48.75 24.43 49.55 30.88 50.86 25.02"/><polygon class="cls-13" points="30.44 0.88 41.55 4.18 39.19 9.21 30.44 0.88"/><polygon class="cls-14" points="39.19 9.21 41.55 4.18 47.62 9.97 42.26 14 39.19 9.21"/><polygon class="cls-16" points="42.26 14 47.62 9.97 49.3 15.56 44.52 17.55 42.26 14"/><polygon class="cls-18" points="44.52 17.55 49.3 15.56 48.61 22.95 48.1 23.16 44.52 17.55"/><polygon class="cls-18" points="48.1 23.16 48.61 22.95 49.57 30.73 48.1 23.16"/><polygon class="cls-12" points="30.44 0.88 32.16 5.81 35.85 14.63 39.19 9.21 30.44 0.88"/><polygon class="cls-15" points="39.19 9.21 35.85 14.63 39.2 17.16 42.26 14 39.19 9.21"/><polygon class="cls-17" points="42.26 14 39.2 17.16 41.91 19.36 44.52 17.55 42.26 14"/><polygon class="cls-19" points="44.52 17.55 41.91 19.36 47.38 23.93 48.1 23.16 44.52 17.55"/><polygon class="cls-20" points="48.1 23.16 47.38 23.93 49.59 30.89 48.1 23.16"/><path class="cls-21" d="M88,72a1.33,1.33,0,0,0,.31.46,1.47,1.47,0,0,0,2,0,1.36,1.36,0,0,0,.32-.46,1.47,1.47,0,0,0,.11-.56,1.51,1.51,0,0,0-.11-.56,1.36,1.36,0,0,0-.32-.46,1.49,1.49,0,0,0-.46-.31,1.48,1.48,0,0,0-1.12,0,1.49,1.49,0,0,0-.46.31,1.49,1.49,0,0,0-.43,1A1.31,1.31,0,0,0,88,72Zm.72-1.39h.69a.91.91,0,0,1,.23,0,.46.46,0,0,1,.19.08.54.54,0,0,1,.15.15.62.62,0,0,1,.05.25.4.4,0,0,1-.09.27.53.53,0,0,1-.23.16l.43.69h-.46l-.35-.63h-.23v.63H88.7Z"/><path class="cls-21" d="M89.54,71.23a.19.19,0,0,0,.08-.15.16.16,0,0,0-.09-.15.28.28,0,0,0-.15,0h-.3v.4h.3A.25.25,0,0,0,89.54,71.23Z"/><path class="cls-21" d="M21.09,83.2A1.16,1.16,0,0,1,20,82h0a1.15,1.15,0,0,1,1.13-1.21,1.41,1.41,0,0,1,1,.44l.55-.63A2,2,0,0,0,21.09,80a2,2,0,0,0-2,2v0a2,2,0,0,0,2,2,2,2,0,0,0,1.6-.7l-.54-.56A1.41,1.41,0,0,1,21.09,83.2Z"/><path class="cls-21" d="M25.41,80l-1.67,3.94h.87l.36-.88h1.65l.36.88h.9L26.2,80Zm-.13,2.3L25.8,81l.52,1.26Z"/><polygon class="cls-21" points="30.06 80.02 29.2 80.02 29.2 83.93 32.01 83.93 32.01 83.15 30.06 83.15 30.06 80.02"/><rect class="cls-21" x="33.42" y="80.02" width="0.86" height="3.91"/><polygon class="cls-21" points="35.98 83.93 36.84 83.93 36.84 82.42 38.71 82.42 38.71 81.63 36.84 81.63 36.84 80.8 38.96 80.8 38.96 80.02 35.98 80.02 35.98 83.93"/><path class="cls-21" d="M42.28,80a2,2,0,0,0-2.09,2v0a2.08,2.08,0,0,0,4.16,0h0A2,2,0,0,0,42.28,80Zm1.17,2a1.16,1.16,0,0,1-1.17,1.21A1.19,1.19,0,0,1,41.09,82h0a1.16,1.16,0,0,1,1.18-1.21A1.18,1.18,0,0,1,43.45,82Z"/><path class="cls-21" d="M49.1,81.32h0a1.2,1.2,0,0,0-.34-.89,1.55,1.55,0,0,0-1.14-.4H45.83v3.91h.86V82.68h.68l.84,1.25h1l-1-1.4A1.22,1.22,0,0,0,49.1,81.32Zm-.88.05c0,.32-.24.55-.65.55h-.88V80.8h.86c.42,0,.67.19.67.55Z"/><polygon class="cls-21" points="53.22 82.43 51.39 80.02 50.59 80.02 50.59 83.93 51.44 83.93 51.44 81.44 53.34 83.93 54.07 83.93 54.07 80.02 53.22 80.02 53.22 82.43"/><rect class="cls-21" x="55.76" y="80.02" width="0.86" height="3.91"/><path class="cls-21" d="M59.67,80,58,83.93h.88l.35-.88h1.66l.36.88h.89L60.46,80Zm-.14,2.3L60.05,81l.52,1.26Z"/><polygon class="cls-21" points="65.52 80.33 65.7 81.03 66.38 80.86 66.38 83.93 67.23 83.93 67.23 79.99 66.64 79.99 65.52 80.33"/><path class="cls-21" d="M70.27,80a1.38,1.38,0,0,0-1.49,1.37h0a1.23,1.23,0,0,0,1.4,1.26,1.19,1.19,0,0,0,.79-.26c-.06.52-.31.88-.79.88a1.28,1.28,0,0,1-.86-.33l-.45.65a1.85,1.85,0,0,0,1.28.47c1.12,0,1.71-.87,1.71-2.14h0a1.93,1.93,0,0,0-.46-1.47A1.41,1.41,0,0,0,70.27,80ZM71,81.3a.6.6,0,0,1-.67.58c-.43,0-.69-.24-.69-.59h0a.6.6,0,0,1,.67-.59.61.61,0,0,1,.69.6Z"/><polygon class="cls-21" points="73.21 80.76 75.05 80.76 73.3 83.93 74.27 83.93 76.03 80.67 76.03 80.02 73.21 80.02 73.21 80.76"/><path class="cls-21" d="M79,82.69c.69-.53,1-.86,1-1.51h0A1.2,1.2,0,0,0,78.71,80a1.65,1.65,0,0,0-1.46.81l.6.49c.29-.36.5-.53.8-.53a.48.48,0,0,1,.53.51c0,.33-.19.54-.68.94l-1.3,1.07v.68h2.89v-.74h-1.7Z"/><path class="cls-21" d="M15.48,35.8a6.16,6.16,0,0,1,2-1.46,6.42,6.42,0,0,1,2.68-.54,6.71,6.71,0,0,1,2.55.46,5.62,5.62,0,0,1,1.9,1.31l.46.48,2.13-2.13-.46-.46a8.21,8.21,0,0,0-2.81-1.84,10.08,10.08,0,0,0-3.8-.66,9.81,9.81,0,0,0-3.77.72,9.13,9.13,0,0,0-5,5,10,10,0,0,0-.73,3.83,10.14,10.14,0,0,0,.71,3.82,9,9,0,0,0,5,5.05,9.89,9.89,0,0,0,3.8.72,14.4,14.4,0,0,0,3.5-.43,11.9,11.9,0,0,0,3.18-1.33l.32-.19v-8.7h-3v7l-.13.06a7.64,7.64,0,0,1-1.34.48,10,10,0,0,1-2.47.29,6.42,6.42,0,0,1-2.68-.54,6.17,6.17,0,0,1-2-1.45,6.4,6.4,0,0,1-1.27-2.14,7.63,7.63,0,0,1,0-5.22A6.54,6.54,0,0,1,15.48,35.8Z"/><path class="cls-21" d="M35.54,31.68a9.23,9.23,0,0,0-3,2,9,9,0,0,0-2,3,10.41,10.41,0,0,0,0,7.66,9.13,9.13,0,0,0,5,5,10.23,10.23,0,0,0,7.54,0,9.19,9.19,0,0,0,5-5,10.55,10.55,0,0,0,0-7.66,9.28,9.28,0,0,0-2-3,9.13,9.13,0,0,0-3-2A10.23,10.23,0,0,0,35.54,31.68ZM42,34.34a6,6,0,0,1,2,1.46A6.54,6.54,0,0,1,45.26,38a8,8,0,0,1,0,5.22A6.55,6.55,0,0,1,44,45.31a6.28,6.28,0,0,1-2,1.45,6.42,6.42,0,0,1-2.68.54,6.34,6.34,0,0,1-2.67-.54,6.07,6.07,0,0,1-2-1.45,6.38,6.38,0,0,1-1.26-2.14,7.79,7.79,0,0,1,0-5.22,6.42,6.42,0,0,1,1.26-2.15,6.06,6.06,0,0,1,2-1.46,6.87,6.87,0,0,1,5.34,0Z"/><path class="cls-21" d="M53.66,47.41a9.23,9.23,0,0,0,3,2,10.23,10.23,0,0,0,7.54,0,9.13,9.13,0,0,0,5-5,10.41,10.41,0,0,0,0-7.66,9.13,9.13,0,0,0-5-5,10.23,10.23,0,0,0-7.54,0,9.19,9.19,0,0,0-5,5,10.55,10.55,0,0,0,0,7.66A9.12,9.12,0,0,0,53.66,47.41ZM54.5,38a6.54,6.54,0,0,1,1.27-2.15,6,6,0,0,1,2-1.46,6.87,6.87,0,0,1,5.34,0,6.06,6.06,0,0,1,2,1.46A6.62,6.62,0,0,1,66.4,38a8,8,0,0,1,0,5.22,6.57,6.57,0,0,1-1.27,2.14,6.17,6.17,0,0,1-2,1.45,6.87,6.87,0,0,1-5.34,0,6.21,6.21,0,0,1-2-1.45,6.55,6.55,0,0,1-1.26-2.14,8,8,0,0,1,0-5.22Z"/><path class="cls-21" d="M85,33.67A9.68,9.68,0,0,0,81.92,32a10.89,10.89,0,0,0-3.39-.56h-6.3V49.71h6.3a10.63,10.63,0,0,0,3.39-.57A9.47,9.47,0,0,0,85,47.43a8.7,8.7,0,0,0,3.11-6.88,8.92,8.92,0,0,0-.86-4A8.83,8.83,0,0,0,85,33.67Zm-.45,9.22a5.75,5.75,0,0,1-1.26,2,6.52,6.52,0,0,1-2.15,1.43,8.14,8.14,0,0,1-3.1.55H75.26V34.23h2.79a8.1,8.1,0,0,1,3.1.55,6.57,6.57,0,0,1,2.15,1.43,5.75,5.75,0,0,1,1.26,2,6.58,6.58,0,0,1,0,4.68Z"/><polygon class="cls-21" points="14.97 64.45 22.87 64.45 22.87 61.55 14.97 61.55 14.97 57.38 23.43 57.38 23.43 54.48 11.89 54.48 11.89 72.22 23.7 72.22 23.7 69.32 14.97 69.32 14.97 64.45"/><path class="cls-21" d="M34.92,54.48H32.37L24.7,72.22h3.38l1.78-4.29h7.48l1.8,4.29h3.4ZM31.07,65,33.6,58.9,36.12,65Z"/><path class="cls-21" d="M52.62,64.17a4.6,4.6,0,0,0,.52-.19,4.91,4.91,0,0,0,1.53-1,4.61,4.61,0,0,0,1-1.5,4.67,4.67,0,0,0,.38-1.92,5.16,5.16,0,0,0-.49-2.35,4.25,4.25,0,0,0-1.39-1.61,5.59,5.59,0,0,0-2-.86,10.63,10.63,0,0,0-2.39-.25h-5.5V72.22h3.08V64.59H49l4.52,7.63h3.7l-4.88-8Zm-3.08-2.43H47.37V57.33h2.24a7.15,7.15,0,0,1,1.53.15,3.07,3.07,0,0,1,1,.41,1.68,1.68,0,0,1,.6.64,2.15,2.15,0,0,1,.21,1,1.72,1.72,0,0,1-.77,1.58A4.89,4.89,0,0,1,49.54,61.74Z"/><polygon class="cls-21" points="65.62 72.22 65.62 57.38 71.08 57.38 71.08 54.48 57.08 54.48 57.08 57.38 62.54 57.38 62.54 72.22 65.62 72.22"/><polygon class="cls-21" points="83.57 72.22 86.65 72.22 86.65 54.48 83.57 54.48 83.57 61.55 76.1 61.55 76.1 54.48 73.02 54.48 73.02 72.22 76.1 72.22 76.1 64.5 83.57 64.5 83.57 72.22"/><polygon class="cls-21" points="64.25 20.8 61.44 23.46 96.5 23.46 96.5 80.93 83.08 80.93 83.08 83.59 99.16 83.59 99.16 20.8 64.25 20.8"/><polygon class="cls-21" points="2.66 23.46 42.07 23.46 38.88 20.8 0 20.8 0 83.59 16.27 83.59 16.27 80.93 2.66 80.93 2.66 23.46"/></g></g></svg>